<svg width="279" height="380" xmlns="http://www.w3.org/2000/svg">

 <g>
  <title>background</title>
  <rect fill="none" id="canvas_background" height="382" width="281" y="-1" x="-1"/>
 </g>
 <g>
  <title>Layer 1</title>
  <g id="svg_2">
   <g id="svg_93">
    <polygon id="svg_88" points="211.4949951171875,223.49200439453125 66.83399963378906,223.49200439453125 -0.29599761962890625,337.49200439453125 278.625,337.49200439453125 " fill="#39B28A"/>
    <polyline id="svg_89" points="233.239013671875,260.0719909667969 211.4949951171875,223.49200439453125 67,223.49200439453125 " fill="#2A936D"/>
    <polygon id="svg_90" points="186.9119873046875,126.49200439453125 153.82000732421875,126.49200439453125 124.50999450683594,126.49200439453125 91.41700744628906,126.49200439453125 33.740997314453125,223.49200439453125 66.83399963378906,223.49200439453125 211.4949951171875,223.49200439453125 244.5880126953125,223.49200439453125 " fill="#39B28A"/>
    <polyline id="svg_91" points="205.30599975585938,157.41200256347656 186.9119873046875,126.49200439453125 153.82000732421875,126.49200439453125 124.50999450683594,126.49200439453125 91,126.49200439453125 " fill="#2A936D"/>
    <polygon id="svg_92" points="139.1649932861328,0 64.47000122070312,126.49200439453125 91.41700744628906,126.49200439453125 124.50999450683594,126.49200439453125 153.82000732421875,126.49200439453125 186.9119873046875,126.49200439453125 213.8590087890625,126.49200439453125 " fill="#39B28A"/>
   </g>
   <rect id="svg_94" height="42" width="53" fill="#846F5E" y="337.492001" x="110"/>
   <polyline id="svg_95" points="110,337.49200439453125 163,337.49200439453125 163,379.49200439453125 " fill="#6D5848"/>
  </g>
 </g>
</svg>