<?xml version="1.0" encoding="utf-8"?>
<!-- Generator: Adobe Illustrator 16.0.0, SVG Export Plug-In . SVG Version: 6.00 Build 0)  -->
<!DOCTYPE svg PUBLIC "-//W3C//DTD SVG 1.1//EN" "http://www.w3.org/Graphics/SVG/1.1/DTD/svg11.dtd">
<svg version="1.1" id="Layer_1" xmlns="http://www.w3.org/2000/svg" xmlns:xlink="http://www.w3.org/1999/xlink" x="0px" y="0px"
	 width="1400px" height="980px" viewBox="0 0 1400 980" enable-background="new 0 0 1400 980" xml:space="preserve">
<rect fill="#F6F2E3" width="1400" height="980"/>
<g>
	<g>
		<polygon fill="#39B28A" points="295.495,283 150.834,283 83.704,397 362.625,397 		"/>
		<polyline fill="#2A936D" points="317.239,319.58 295.495,283 151,283 		"/>
		<polygon fill="#39B28A" points="270.912,186 237.82,186 208.51,186 175.417,186 117.741,283 150.834,283 295.495,283 328.588,283 
					"/>
		<polyline fill="#2A936D" points="289.306,216.92 270.912,186 237.82,186 208.51,186 175,186 		"/>
		<polygon fill="#39B28A" points="223.165,59.508 148.47,186 175.417,186 208.51,186 237.82,186 270.912,186 297.859,186 		"/>
	</g>
	<rect x="194" y="397" fill="#846F5E" width="53" height="42"/>
	<polyline fill="#6D5848" points="194,397 247,397 247,439 	"/>
</g>
<g>
	<g>
		<polygon fill="#39B28A" points="693.862,398 634.621,305 657.092,305 606.021,225 632.068,225 586.104,153 607.043,153 
			547.8,60.133 488.558,153 509.498,153 463.533,225 489.58,225 438.509,305 460.979,305 401.738,398 		"/>
		<g>
			<polygon fill="#2A936D" points="634.621,305 657.092,305 606.021,225 632.068,225 586.104,153 607.043,153 548,60 548,398 
				693.862,398 			"/>
		</g>
	</g>
	<rect x="525" y="398" fill="#846F5E" width="53" height="41"/>
	<polyline fill="#6D5848" points="525,398 578,398 578,439 	"/>
</g>
<g>
	<g>
		<path fill="#39B28A" d="M419.295,778h8.448c-1.609-2-3.052-4.212-4.292-6.514L419.295,778z"/>
		<path fill="#39B28A" d="M488.059,871h186.59l-24.599-38.462c-8.026,22.179-29.269,38.078-54.214,38.078
			c-31.834,0-57.642-25.782-57.642-57.616s25.808-57.63,57.642-57.63c13.134,0,25.237,4.408,34.93,11.806l-23.747-37.22
			c-3.575,0.918-7.321,1.407-11.183,1.407c-24.76,0-44.833-20.071-44.833-44.831c0-18.761,11.527-34.932,27.883-41.617L566.889,626
			h20.94l-59.243-92.756l-20.265,31.821c22.099,8.067,37.877,29.3,37.877,54.191c0,31.835-25.808,57.655-57.642,57.655
			c-9.557,0-18.563-2.471-26.501-6.589L444.319,698h26.047l-4.819,7.691c23.545,1.352,42.225,20.936,42.225,44.819
			c0,24.761-20.072,44.867-44.833,44.867c-9.926,0-19.095-3.216-26.522-8.676l-23.789,37.3c5.748-1.923,11.893-3.075,18.288-3.075
			C460.215,820.927,484.392,843,488.059,871z"/>
		<path fill="#39B28A" d="M546.199,619.284c0-24.892-15.778-46.206-37.877-54.274L469.344,626h20.94l-28.227,44.357
			c7.938,4.117,16.944,6.513,26.501,6.513C520.392,676.87,546.199,651.119,546.199,619.284z"/>
		<path fill="#39B28A" d="M538.193,813.024c0,31.834,25.808,57.642,57.642,57.642c24.946,0,46.188-16.016,54.214-38.194L615.407,778
			h22.471l-7.113-10.984c-9.693-7.397-21.796-11.716-34.93-11.716C564.001,755.3,538.193,781.19,538.193,813.024z"/>
		<path fill="#39B28A" d="M488.059,871c-3.667-28-27.844-50.069-57.143-50.069c-6.395,0-12.541,1.008-18.288,2.931L382.524,871
			H488.059z"/>
		<path fill="#39B28A" d="M551.003,686.533c0,24.76,20.072,44.832,44.833,44.832c3.862,0,7.608-0.625,11.183-1.543L586.807,698
			h26.047l-33.968-53.111C562.53,651.574,551.003,667.772,551.003,686.533z"/>
		<path fill="#4ACC9A" d="M427.743,778c2.501,4,5.416,5.994,8.673,8.388l5.349-8.388H427.743z"/>
		<path fill="#39B28A" d="M507.771,750.579c0-23.884-18.679-43.399-42.225-44.751l-42.096,65.824
			c1.24,2.302,2.683,4.348,4.292,6.348h14.022l-5.349,8.554c7.427,5.46,16.596,8.775,26.522,8.775
			C487.699,795.329,507.771,775.34,507.771,750.579z"/>
		<path opacity="0.5" fill="#4ACC9A" d="M546.199,619.284c0-24.892-15.778-46.206-37.877-54.274L469.344,626h20.94l-28.227,44.357
			c7.938,4.117,16.944,6.513,26.501,6.513C520.392,676.87,546.199,651.119,546.199,619.284z"/>
		<path opacity="0.5" fill="#4ACC9A" d="M538.193,813.024c0,31.834,25.808,57.642,57.642,57.642
			c24.946,0,46.188-16.016,54.214-38.194L615.407,778h22.471l-7.113-10.984c-9.693-7.397-21.796-11.716-34.93-11.716
			C564.001,755.3,538.193,781.19,538.193,813.024z"/>
		<path opacity="0.5" fill="#2A936D" d="M488.059,871c-3.667-28-27.844-50.069-57.143-50.069c-6.395,0-12.541,1.008-18.288,2.931
			L382.524,871H488.059z"/>
		<path opacity="0.5" fill="#2A936D" d="M551.003,686.533c0,24.76,20.072,44.832,44.833,44.832c3.862,0,7.608-0.625,11.183-1.543
			L586.807,698h26.047l-33.968-53.111C562.53,651.574,551.003,667.772,551.003,686.533z"/>
		<path opacity="0.5" fill="#4ACC9A" d="M507.771,750.579c0-23.884-18.679-43.399-42.225-44.751l-42.096,65.824
			c1.24,2.302,2.683,4.348,4.292,6.348h14.022l-5.349,8.554c7.427,5.46,16.596,8.775,26.522,8.775
			C487.699,795.329,507.771,775.34,507.771,750.579z"/>
	</g>
	<rect x="498" y="871" fill="#846F5E" width="53" height="42"/>
	<polyline fill="#6D5848" points="498,871 551,871 551,913 	"/>
</g>
<g>
	<g>
		<polygon fill="none" points="177.568,533.933 176.531,527.236 175.329,534.999 176.731,532.354 		"/>
		<polygon fill="#4ACC9A" points="107.065,664 129.726,664 37.139,872 123.143,872 175.329,535.273 		"/>
		<polygon fill="#39B28A" points="177.568,534.032 176.731,532.404 175.329,535.123 123.143,872 229.919,872 		"/>
		<polygon fill="#2A936D" points="316.321,872 223.736,664 246.396,664 177.568,534.207 229.919,872 		"/>
	</g>
	<rect x="151" y="872" fill="#846F5E" width="53" height="41"/>
	<polyline fill="#6D5848" points="151,872 204,872 204,913 	"/>
</g>
<g>
	<g>
		<polygon fill="none" points="876.939,533.352 876.635,535.489 877.438,536.85 		"/>
		<polygon fill="#4ACC9A" points="876.439,535.334 801.744,662 828.004,662 828.597,661.826 771.016,759 803.986,759 
			804.094,759.182 736.979,873 828.506,873 876.635,535.575 		"/>
		<polygon fill="#39B28A" points="877.438,536.848 876.635,535.487 828.506,873 925.373,873 		"/>
		<polygon fill="#2A936D" points="1015.899,873 948.77,759 981.862,759 924.187,662 951.134,662 877.438,537.023 925.373,873 		"/>
	</g>
	<rect x="850" y="871" fill="#846F5E" width="53" height="42"/>
	<polyline fill="#6D5848" points="850,871 903,871 903,913 	"/>
</g>
<g>
	<g>
		<polygon fill="#39B28A" points="1217.086,535.154 1077.785,873 1356.388,873 		"/>
		<g>
			<path fill="#2A936D" d="M1223,862c0,0,0-153.366,0-229.746c0-1.987,0-4.254,0-5.254c0-8-11-8-11,0c0,75,0,152.049,0,228.428
				c0,1.989,0,3.572,0,6.572C1212,869,1223,869,1223,862C1223,862,1223,869,1223,862z"/>
		</g>
		<g>
			<path fill="#2A936D" d="M1273.27,775.783c-19.782,18.821-39.563,38.217-59.345,56.217c2.641,0,5.283,0,7.925,0
				c-19.782-18-39.563-37.397-59.346-56.218c-5.231-4.979-13.17,3.058-7.924,8.046c19.781,18.824,39.563,37.704,59.345,56.523
				c2.253,2.146,5.671,2.174,7.925,0.03c19.781-18.82,39.563-37.746,59.344-56.566
				C1286.439,778.826,1278.501,770.806,1273.27,775.783L1273.27,775.783z"/>
		</g>
		<g>
			<path fill="#2A936D" d="M1252.42,726.019c-12.833,12.209-25.664,23.981-38.495,36.981c2.641,0,5.283,0,7.925,0
				c-12.832-13-25.663-24.774-38.496-36.981c-5.231-4.979-13.17,2.756-7.924,7.747c12.831,12.208,25.662,24.326,38.495,36.534
				c2.253,2.145,5.671,2.1,7.925-0.044c12.832-12.208,25.663-24.26,38.494-36.467C1265.59,728.797,1257.651,721.041,1252.42,726.019
				L1252.42,726.019z"/>
		</g>
		<g>
			<path fill="#2A936D" d="M1241.446,672.469c-9.174,8.729-18.348,16.531-27.521,26.531c2.641,0,5.283,0,7.925,0
				c-9.174-10-18.348-17.803-27.521-26.531c-5.232-4.979-13.171,2.761-7.925,7.752c9.174,8.728,18.348,17.368,27.521,26.096
				c2.253,2.144,5.671,2.101,7.925-0.043c9.174-8.728,18.348-17.303,27.521-26.03
				C1254.617,675.252,1246.678,667.491,1241.446,672.469L1241.446,672.469z"/>
		</g>
	</g>
	<rect x="1191" y="872" fill="#846F5E" width="53" height="41"/>
	<polyline fill="#6D5848" points="1191,872 1244,872 1244,913 	"/>
</g>
<g>
	<g>
		<polygon fill="#39B28A" points="1015.899,397 948.77,284 981.862,284 924.187,186 951.134,186 876.439,59.508 801.744,186 
			828.004,186 828.598,186.325 771.016,284 803.986,284 804.094,283.682 736.979,397 		"/>
		<g>
			<path fill="#2A936D" d="M879,397c0,0,0-155.746,0-233.848c0-4.269,0-9.152,0-12.152s-5-3-5,0c0,77,0,155.549,0,233.651
				c0,4.269,0,8.349,0,12.349S879,401,879,397C879,397,879,401,879,397z"/>
		</g>
		<g>
			<path fill="#2A936D" d="M934.486,310.428C914.704,330.209,894.923,349,875.141,370c1.133,0,2.265,0,3.396,0
				c-19.781-21-39.563-39.792-59.345-59.574c-2.192-2.192-5.588,1.09-3.396,3.282c19.781,19.782,39.563,39.506,59.344,59.288
				c0.926,0.926,2.471,0.898,3.396-0.028c19.782-19.781,39.563-39.462,59.345-59.244
				C940.074,311.532,936.678,308.236,934.486,310.428L934.486,310.428z"/>
		</g>
		<g>
			<path fill="#2A936D" d="M913.637,256.883C900.804,269.714,887.973,282,875.141,295c1.133,0,2.265,0,3.396,0
				c-12.831-13-25.662-25.287-38.495-38.118c-2.192-2.192-5.588,1.393-3.396,3.585c12.831,12.831,25.663,25.757,38.494,38.589
				c0.926,0.926,2.471,0.972,3.396,0.046c12.831-12.831,25.664-25.826,38.495-38.658
				C919.225,258.252,915.828,254.691,913.637,256.883L913.637,256.883z"/>
		</g>
		<g>
			<path fill="#2A936D" d="M902.663,200.732C893.489,209.905,884.314,220,875.141,228c1.133,0,2.265,0,3.396,0
				c-9.174-8-18.348-18.095-27.521-27.269c-2.192-2.192-5.588,1.331-3.396,3.523c9.174,9.174,18.348,18.411,27.521,27.584
				c0.926,0.926,2.471,0.957,3.396,0.031c9.174-9.173,18.348-18.457,27.521-27.631C908.251,202.047,904.854,198.54,902.663,200.732
				L902.663,200.732z"/>
		</g>
	</g>
	<rect x="850" y="397" fill="#846F5E" width="53" height="42"/>
	<polyline fill="#6D5848" points="850,397 903,397 903,439 	"/>
</g>
<g>
	<g>
		<polygon fill="#39B28A" points="1281.133,313 1339.009,313 1315.596,255.842 1258.717,237 1307.98,237 1284.265,179.509 
			1239.502,165 1278.271,165 1234.699,59.323 1191.127,165 1234.699,165 1184.391,181.31 1161.418,237 1215.485,237 
			1153.061,257.643 1130.389,313 1193.068,313 1120.699,336.068 1095.398,397 1374,397 1347.956,334.268 		"/>
		<polygon fill="#2A936D" points="1347.956,334.699 1339.009,313 1281.133,313 		"/>
		<polygon fill="#2A936D" points="1315.596,255.469 1307.98,237 1258.717,237 		"/>
		<polygon fill="#2A936D" points="1284.265,179.535 1278.271,165 1239.502,165 		"/>
		<polygon fill="#2A936D" points="1130.389,313 1120.699,336.5 1193.068,313 		"/>
		<polygon fill="#2A936D" points="1161.418,237 1153.061,257.27 1215.485,237 		"/>
		<polygon fill="#2A936D" points="1191.127,165 1184.391,181.335 1234.699,165 		"/>
	</g>
	<rect x="1209" y="397" fill="#846F5E" width="53" height="42"/>
	<polyline fill="#6D5848" points="1209,397 1262,397 1262,439 	"/>
</g>
</svg>
